<svg xmlns="http://www.w3.org/2000/svg" xml:space="preserve" fill-rule="evenodd" stroke-linejoin="round" stroke-miterlimit="2" clip-rule="evenodd" viewBox="0 0 1024 1024">
  <path fill="#eb7d28" fill-rule="nonzero" d="M728.15316 501.73708c-6.27746-6.27746-13.61348-11.57022-21.54031-15.65673l-9.847-33.38133-197.23541-1.37858-7.55758 26.8577c-11.49637 2.33866-25.62681 9.5762-34.29217 17.67536l-88.8938-97.3376c-20.1125 8.96077-34.1937 29.04865-34.1937 52.50913v23.6328l-98.47 102.5565.39388 53.8631 245.78112 264.12115s258.92686-376.35234 259.5423-375.61381c-3.12642-5.51432-12.57954-17.3061-13.68733-17.84769Z"/>
  <path fill="#ffcb3d" fill-rule="nonzero" d="M286.761 649.048c25.209 0 47.389-12.949 60.313-32.544 3.028 4.505 6.671 8.517 10.61 12.234 29.172 27.449 74.69 25.701 102.581-2.117 3.742-3.741 7.459-7.508 10.315-12.013l-.074-.074c4.948 2.831 11.669 9.896 36.286 9.896h62.455c-9.109 6.869-17.429 15.337-25.208 24.618-30.231 36.114-49.555 88.771-49.555 147.705 0 6.794 5.514 12.309 12.308 12.309 6.795 0 12.309-5.515 12.309-12.309 0-62.726 23.534-117.549 58.516-147.705 18.02-15.534 38.994-24.618 61.494-24.618 17.553 1.945 20.851-24.617 3.078-24.617H506.792c-27.177 0-49.235-22.057-49.235-49.235s22.058-49.235 49.235-49.235h196.94c21.122 0 40.865 14.672 47.094 34.834l26.759 88.253c2.535 8.247 11.792 46.06 10.118 53.937 0 118.386-115.604 241.473-256.293 241.473-160.925 0-291.57-128.774-295.065-288.861l.344.246c12.678 10.955 28.95 17.823 47.02 17.823h3.052Zm-3.594-221.558h4.136c26.07 0 47.167 21.122 47.167 47.192v102.557c0 26.07-21.097 47.191-47.167 47.191h-4.136c-26.07 0-47.167-21.121-47.167-47.191V474.682c0-26.07 21.097-47.192 47.167-47.192Zm170.304 72.868-1.379 1.527c-11.668 13.022-19.152 29.811-19.152 48.693 0 1.551.32 3.028.443 4.554 1.083 16.691 7.582 31.806 17.922 43.672-1.748 3.175-4.013 5.982-6.376 8.69-9.01 10.265-21.91 16.936-36.607 16.936-27.177 0-49.235-22.057-49.235-49.235V427.49c0-10.856 3.619-20.801 9.577-28.95 8.96-12.235 23.312-20.284 39.658-20.284 27.178 0 49.235 22.057 49.235 49.234v68.388c-1.501 1.354-2.683 3.028-4.086 4.48ZM668.8 476.725H506.792c-5.12 0-10.117.517-14.942 1.502l-1.798-6.844-80.573-306.832s-10.24-48.176 37.911-58.393c48.152-10.24 58.393 37.911 58.393 37.911l76.24 284.8c10.98.591 21.615 1.551 32.126 2.634l50.737-258.779s4.628-49.013 53.666-44.41c49.013 4.628 44.385 53.642 44.385 53.642l-50.835 274.755-5.44 29.394c-11.423-5.785-24.175-9.38-37.862-9.38Z"/>
</svg>